<svg width="15.5rem" height="4.7rem" viewBox="0 0 155 47" version="1.1" xmlns="http://www.w3.org/2000/svg" xmlns:xlink="http://www.w3.org/1999/xlink" class="AppLinks_icon__cX36_" fill="none" data-tid="HuaweiAppGalleryGray"><path d="M.515 13.186c0-4.48 0-6.72.872-8.432a8 8 0 0 1 3.496-3.496C6.594.386 8.834.386 13.315.386h128.4c4.48 0 6.72 0 8.432.872a8.001 8.001 0 0 1 3.496 3.496c.872 1.711.872 3.951.872 8.432v20.4c0 4.48 0 6.72-.872 8.432a8.001 8.001 0 0 1-3.496 3.496c-1.712.872-3.952.872-8.432.872h-128.4c-4.48 0-6.721 0-8.432-.872a8 8 0 0 1-3.496-3.496c-.872-1.712-.872-3.952-.872-8.432v-20.4Z" fill="#141414" fill-opacity="1"></path><path fill-rule="evenodd" clip-rule="evenodd" d="M83.083 10.411a1.286 1.286 0 0 1-.495-.442 1.5 1.5 0 0 1-.215-.583h.738c.08.437.336.656.77.656.435 0 .693-.219.776-.656h.743a1.47 1.47 0 0 1-.216.583c-.114.18-.279.328-.496.442-.217.114-.487.171-.805.171-.318 0-.584-.057-.8-.17Zm-7.495 6.162a2.468 2.468 0 0 1-.996-1.048c-.229-.451-.345-.973-.345-1.57 0-.625.123-1.173.368-1.642a2.58 2.58 0 0 1 1.058-1.086c.46-.256 1.004-.383 1.629-.383.6 0 1.113.124 1.546.37.433.248.761.596.988 1.044.227.449.34.968.34 1.557 0 .637-.125 1.19-.371 1.66-.248.47-.6.833-1.058 1.086-.457.255-.996.382-1.613.382-.596.004-1.112-.122-1.546-.37Zm2.658-.728c.287-.193.5-.458.643-.796.142-.338.214-.723.214-1.157 0-.426-.064-.807-.19-1.14a1.688 1.688 0 0 0-.602-.796c-.276-.198-.632-.298-1.066-.298-.415 0-.767.102-1.058.302-.29.201-.508.47-.652.809a2.8 2.8 0 0 0-.217 1.116c0 .43.069.813.206 1.153.137.34.346.607.627.803.28.196.63.296 1.045.296.411-.003.762-.1 1.05-.292Zm-10.492 1.018h1.156l-2.207-3.236 1.085-1.557c.092-.134.182-.23.268-.29.087-.061.19-.09.31-.09.102 0 .208.024.32.07l.214-.8a1.562 1.562 0 0 0-.615-.115c-.276 0-.505.06-.688.178-.182.12-.364.312-.543.577l-1.23 1.78h-.537v-2.453h-1.025v5.936h1.025v-2.615h.7l1.767 2.615Zm3.537-5.936h-1.599v5.936h1.026v-2.287c.292.054.551.082.778.082.417 0 .784-.079 1.104-.236.32-.156.568-.382.748-.676.178-.293.268-.638.268-1.031 0-.58-.201-1.022-.6-1.33-.398-.305-.974-.458-1.725-.458Zm1.3 1.812c0 .361-.108.642-.327.84-.219.197-.537.296-.955.296-.138 0-.335-.02-.591-.062v-2.107h.558c.431 0 .76.08.981.241.224.162.335.427.335.792Zm12.804.86v3.264h.952v-5.936H85.17l-2.936 4.6c.025-.437.038-.84.038-1.209v-3.391h-.952v5.936h1.14l2.98-4.674c-.03.53-.045 1-.045 1.41Zm-31.54 2.974a2.47 2.47 0 0 1-.996-1.048c-.229-.45-.344-.973-.344-1.57 0-.625.122-1.173.367-1.642a2.582 2.582 0 0 1 1.058-1.086c.46-.256 1.004-.383 1.63-.383.599 0 1.113.124 1.545.37.433.249.761.596.988 1.044.227.447.34.968.34 1.557 0 .637-.124 1.19-.37 1.66-.249.47-.6.833-1.059 1.086-.459.253-.996.383-1.613.383-.597.003-1.112-.123-1.546-.371Zm2.656-.728c.288-.193.502-.458.644-.795.142-.338.213-.724.213-1.158 0-.426-.063-.806-.189-1.14a1.688 1.688 0 0 0-.602-.796c-.276-.198-.632-.297-1.066-.297-.415 0-.768.1-1.058.302-.29.2-.508.47-.652.808a2.8 2.8 0 0 0-.217 1.117c0 .429.069.813.206 1.152.137.34.346.607.627.803.28.196.63.296 1.045.296.413-.003.762-.1 1.05-.292Zm2.17-4.06h1.838v5.08h1.025v-5.08h1.752l.094-.857h-4.62l-.09.857Zm30.374 0h-1.841l.089-.857h4.622l-.096.857h-1.75v5.08h-1.024v-5.08Zm3.741-.857h3.497l-.099.842h-2.373v1.636h2.238v.792h-2.238v1.812h2.5l-.086.854h-3.439v-5.936Zm10.673 3.003c.212.13.378.3.5.513.12.212.183.46.183.744 0 .332-.084.622-.249.875a1.618 1.618 0 0 1-.725.591c-.318.14-.7.211-1.146.211h-1.935v-5.938h1.853c.629 0 1.1.12 1.414.364.316.243.472.576.472 1 0 .354-.101.647-.301.884a1.594 1.594 0 0 1-.79.498c.272.043.513.127.724.258Zm-2.371-.576h.641c.213 0 .401-.043.563-.128a.946.946 0 0 0 .375-.343.88.88 0 0 0 .131-.473c0-.243-.089-.425-.265-.545-.176-.121-.431-.18-.764-.18h-.681v1.669Zm1.72 2.494c.208-.171.313-.411.313-.723 0-.331-.116-.583-.346-.754-.23-.171-.563-.258-.997-.258h-.69v1.992h.771c.423 0 .74-.087.949-.257Zm2.224 16.294v-10.59l2.043-.167v10.392c0 .382.065.651.195.81.131.158.337.236.619.236.128 0 .307-.03.541-.091l.242 1.47c-.195.08-.432.141-.711.187-.279.047-.544.07-.793.07-1.424.002-2.136-.77-2.136-2.317Zm-18.609 1.584a4.98 4.98 0 0 1-2.044-2.106c-.477-.914-.713-1.994-.713-3.24 0-1.351.274-2.499.82-3.443a5.29 5.29 0 0 1 2.24-2.125c.944-.474 2.004-.71 3.178-.71a8.503 8.503 0 0 1 3.737.855l-.524 1.579c-1.09-.521-2.132-.78-3.123-.78-.836 0-1.57.177-2.198.535-.628.357-1.117.881-1.466 1.574-.348.692-.524 1.528-.524 2.51 0 .858.134 1.619.403 2.283.268.665.693 1.19 1.27 1.579.578.389 1.308.581 2.19.581a7.21 7.21 0 0 0 1.197-.1 6.338 6.338 0 0 0 1.121-.29v-2.436h-2.782v-1.595h4.777v5.068a10.66 10.66 0 0 1-2.163.74c-.756.17-1.507.257-2.256.257-1.208-.001-2.255-.246-3.14-.736ZM60.63 31.072h-4.818l-1.179 3.223h-2.117l4.718-12.038h2.002l4.826 12.038h-2.227l-1.205-3.223Zm-4.212-1.636h3.596l-1.288-3.448a26.663 26.663 0 0 1-.524-1.579c-.155.51-.323 1.03-.506 1.563l-1.278 3.464Zm8.599-1.91c0-.664-.023-1.396-.067-2.193h1.927c.071.371.12.752.15 1.138.797-.87 1.71-1.304 2.741-1.304.598 0 1.153.15 1.66.452.51.302.921.779 1.235 1.429.313.651.47 1.477.47 2.48 0 1.046-.18 1.941-.537 2.684-.356.743-.857 1.304-1.499 1.686-.642.383-1.385.573-2.227.573-.609 0-1.21-.102-1.802-.306v3.704l-2.053.175V27.526h.002Zm5.394 4.581c.418-.561.627-1.383.627-2.463 0-1.003-.173-1.73-.519-2.181a1.657 1.657 0 0 0-1.383-.678 2.24 2.24 0 0 0-1.105.282c-.338.188-.66.441-.963.756v4.802c.204.1.442.178.713.237.271.058.54.086.807.086.798.002 1.405-.279 1.823-.84Zm3.968-6.774c.044.797.067 1.529.067 2.193h-.002v10.518l2.052-.175v-3.704a5.504 5.504 0 0 0 1.803.306c.842 0 1.585-.19 2.227-.573.641-.382 1.142-.943 1.498-1.686.358-.743.538-1.638.538-2.684 0-1.003-.157-1.829-.47-2.48-.314-.65-.725-1.127-1.235-1.429a3.192 3.192 0 0 0-1.66-.452c-1.03 0-1.945.434-2.742 1.304a9.955 9.955 0 0 0-.15-1.138h-1.926Zm6.09 4.31c0 1.081-.21 1.903-.627 2.464-.418.562-1.026.843-1.824.841-.266 0-.536-.028-.807-.086a3.151 3.151 0 0 1-.713-.237v-4.802c.303-.315.625-.568.963-.756a2.24 2.24 0 0 1 1.106-.282c.576 0 1.036.227 1.382.677.346.453.52 1.18.52 2.182Zm20.777 3.464c.022.444.069.839.14 1.188v-.002h1.927a30.945 30.945 0 0 1-.067-1.686v-3.564c0-.968-.152-1.74-.457-2.314-.304-.573-.728-.978-1.27-1.213-.544-.235-1.202-.352-1.978-.352-.664 0-1.296.068-1.893.207-.6.139-1.081.29-1.447.457l.323 1.496a7.35 7.35 0 0 1 1.313-.457 5.68 5.68 0 0 1 1.404-.192c.632 0 1.115.164 1.453.487.34.323.508.882.508 1.674v.174a11.478 11.478 0 0 0-1.628-.116c-1.463 0-2.506.258-3.131.778-.626.519-.94 1.21-.94 2.081 0 .586.125 1.084.375 1.49.25.409.586.713 1.009.915.424.203.893.304 1.409.304.638 0 1.21-.133 1.716-.395a3.95 3.95 0 0 0 1.234-.96Zm-.043-1.236c-.271.305-.62.56-1.046.764a2.893 2.893 0 0 1-1.256.307c-.404 0-.725-.106-.96-.32-.235-.213-.352-.542-.352-.985 0-.465.163-.834.486-1.108.323-.275.91-.412 1.757-.412.356 0 .811.031 1.371.092v1.662Zm8.948-10.319v10.591c0 1.547.713 2.319 2.136 2.317.25 0 .515-.023.794-.07.279-.046.516-.108.71-.186l-.242-1.471c-.233.06-.413.091-.54.091-.282 0-.488-.078-.619-.237-.131-.158-.195-.427-.195-.81V21.387l-2.044.166Zm12.146 8.524h-5.864c.095 1.878.989 2.817 2.684 2.817.421 0 .851-.05 1.292-.154.441-.103.861-.24 1.266-.411l.449 1.404c-1.002.486-2.129.731-3.381.731-.952 0-1.755-.18-2.409-.54a3.471 3.471 0 0 1-1.475-1.554c-.33-.676-.495-1.49-.495-2.443 0-.99.174-1.843.524-2.558.349-.715.834-1.26 1.458-1.636.623-.377 1.343-.565 2.155-.565.848 0 1.556.197 2.122.594.567.397.989.924 1.263 1.582.275.66.411 1.388.411 2.185v.548Zm-2.001-1.304c-.037-.715-.219-1.25-.541-1.608-.321-.358-.751-.536-1.288-.536-.52 0-.953.18-1.3.54-.345.361-.571.895-.677 1.604h3.806Zm3.588-3.44c.045 1.007.068 1.758.068 2.251v6.71h2.043v-5.756c.41-.565.794-.97 1.155-1.217.359-.244.78-.369 1.262-.369.243 0 .465.031.664.092l.258-1.778c-.227-.067-.5-.1-.814-.1-.392 0-.743.084-1.05.253a2.862 2.862 0 0 0-.807.657c-.23.27-.464.599-.702.992a25.057 25.057 0 0 0-.158-1.735h-1.919Zm6.681 12.632a5.154 5.154 0 0 1-.739-.178l.373-1.496c.14.04.314.075.525.113.211.036.41.054.598.054.907 0 1.588-.585 2.043-1.754l.133-.331-3.306-9.039h2.2l1.662 5.052c.272.864.446 1.526.525 1.985a25.71 25.71 0 0 1 .548-1.944l1.687-5.093h2.068l-3.298 9.08c-.31.859-.644 1.55-1.005 2.077-.361.525-.786.915-1.276 1.17-.491.255-1.082.382-1.773.382a5.59 5.59 0 0 1-.965-.078ZM32.637 9.386H20.392c-5.767 0-7.877 2.11-7.877 7.878v12.244c0 5.768 2.11 7.878 7.877 7.878h12.241c5.768 0 7.882-2.11 7.882-7.878V17.264c.001-5.768-2.109-7.878-7.878-7.878Z" fill="#fff" fill-opacity=".9"></path><path d="M26.516 18.728a4.665 4.665 0 0 1-4.66-4.662h.659a4.008 4.008 0 0 0 4.002 4.003 4.008 4.008 0 0 0 4.003-4.003h.66a4.672 4.672 0 0 1-4.664 4.662Zm-8.456 4.66h.742v3.661h-.742v-1.487h-1.677v1.487h-.744v-3.66h.744v1.476h1.677v-1.477Zm4.184 2.096c0 .596-.295.913-.832.913-.54 0-.837-.328-.837-.938v-2.07h-.743v2.094c0 1.03.572 1.62 1.57 1.62 1.007 0 1.585-.602 1.585-1.651v-2.064h-.742v2.096h-.001Zm8.585.421-.832-2.517h-.605l-.832 2.517-.81-2.515h-.79l1.277 3.66h.615l.833-2.404.832 2.403h.619l1.273-3.66h-.77l-.81 2.516Zm2.912-.431h1.35v-.666h-1.35v-.749h1.962v-.667h-2.694v3.655h2.764v-.667h-2.032v-.906Zm2.918 1.57h.733v-3.656h-.733v3.656Zm-12.205-.76-.333.764h-.76l1.614-3.66h.655l1.607 3.66h-.778l-.33-.763h-1.675Zm.277-.66h1.124l-.563-1.31-.56 1.31Z" fill="#000"></path></svg>
