<svg width="15.5rem" height="4.7rem" viewBox="0 0 155 47" version="1.1" xmlns="http://www.w3.org/2000/svg" xmlns:xlink="http://www.w3.org/1999/xlink" class="AppLinks_icon__cX36_" data-tid="AppStoreGray"><path d="M.515 13.186c0-4.48 0-6.72.872-8.432a8 8 0 0 1 3.496-3.496C6.594.386 8.834.386 13.315.386h128.4c4.48 0 6.72 0 8.432.872a8.001 8.001 0 0 1 3.496 3.496c.872 1.711.872 3.951.872 8.432v20.4c0 4.48 0 6.72-.872 8.432a8.001 8.001 0 0 1-3.496 3.496c-1.712.872-3.952.872-8.432.872h-128.4c-4.48 0-6.721 0-8.432-.872a8 8 0 0 1-3.496-3.496c-.872-1.712-.872-3.952-.872-8.432v-20.4Z" fill="#141414" fill-opacity="1"></path><path fill-rule="evenodd" clip-rule="evenodd" d="M50.43 13.471h.922c.32.04.643-.056.89-.263a1.15 1.15 0 0 0 .41-.83c0-.633-.48-1.042-1.29-1.042a1.232 1.232 0 0 0-.923.245c-.262.202-.43.502-.468.83H48.96c.036-.596.318-1.15.78-1.531a2.167 2.167 0 0 1 1.656-.476c1.356 0 2.312.756 2.312 1.845a1.595 1.595 0 0 1-1.252 1.57v.08c.882.04 1.567.78 1.533 1.66a2.29 2.29 0 0 1-.857 1.558 2.31 2.31 0 0 1-1.717.482 2.298 2.298 0 0 1-1.727-.469 2.278 2.278 0 0 1-.862-1.562h1.028c.062.656.667 1.08 1.56 1.08.894 0 1.477-.476 1.477-1.146 0-.68-.55-1.1-1.509-1.1h-.95v-.93Zm6.66.95c-1.237.077-1.935.615-1.935 1.547.002.442.191.862.522 1.157.33.296.77.438 1.212.392a1.752 1.752 0 0 0 1.562-.813h.081v.728h.99v-3.538c0-1.094-.736-1.74-2.04-1.74-1.18 0-2.021.57-2.126 1.46h.994c.115-.366.51-.576 1.084-.576.702 0 1.065.309 1.065.856v.447l-1.41.08Zm1.408.671v.433a1.22 1.22 0 0 1-.432.85 1.23 1.23 0 0 1-.914.282c-.559 0-.965-.271-.965-.737 0-.457.325-.7 1.041-.747l1.27-.08Zm3.747 2.34v-4.318h2.398v-.86H61.22v5.178h1.026Zm6.47.086c1.313 0 2.149-1.032 2.149-2.677 0-1.646-.836-2.673-2.16-2.673a1.808 1.808 0 0 0-1.632.942h-.077v-.856h-.988v6.9h1.026v-2.506h.082c.318.575.942.914 1.6.87Zm-.297-4.432c.87 0 1.39.661 1.39 1.755 0 1.098-.52 1.76-1.394 1.76-.86 0-1.4-.676-1.4-1.756 0-1.084.54-1.759 1.404-1.759Zm3.813 5.321v.88c.096.014.34.024.426.024 1.06 0 1.552-.405 1.996-1.665l1.939-5.392h-1.088l-1.3 4.113h-.081l-1.304-4.113H71.7l1.883 5.197-.077.252a.89.89 0 0 1-.94.723 2.452 2.452 0 0 1-.336-.019Zm5.16-2.444h1.022c.1.456.53.694 1.132.694.683 0 1.103-.3 1.103-.766 0-.499-.377-.737-1.103-.737h-.779v-.794h.765c.62 0 .936-.237.936-.67 0-.38-.305-.67-.936-.67-.574 0-.993.242-1.06.65h-.99a1.822 1.822 0 0 1 2.05-1.516c1.236 0 1.944.556 1.944 1.431.012.502-.33.944-.821 1.06v.081a1.163 1.163 0 0 1 1.017 1.165c0 .985-.842 1.636-2.126 1.636-1.136 0-2.059-.518-2.153-1.564Zm5.757-3.71v5.18h1.018l2.401-3.582h.077v3.581h1.017v-5.178h-1.017l-2.397 3.562h-.081v-3.562h-1.018Zm10.118.861h-1.638v4.318h-1.027v-4.318h-1.638v-.86h4.303v.86Zm5.53 2.92a2.113 2.113 0 0 1-2.255 1.498 2.367 2.367 0 0 1-1.823-.782 2.346 2.346 0 0 1-.58-1.89 2.382 2.382 0 0 1 .58-1.898 2.404 2.404 0 0 1 1.818-.808c1.448 0 2.322.984 2.322 2.61v.357h-3.673v.057c-.033.385.099.765.363 1.047.263.283.635.441 1.022.437.502.06.99-.188 1.236-.628h.99Zm-3.61-1.669h2.625a1.246 1.246 0 0 0-.341-.953 1.258 1.258 0 0 0-.938-.388 1.331 1.331 0 0 0-.958.387 1.32 1.32 0 0 0-.389.954Zm7.96-2.111h2.345c1.018 0 1.615.513 1.615 1.317.003.525-.364.981-.879 1.094v.08c.631.04 1.12.565 1.112 1.194 0 .904-.682 1.493-1.824 1.493h-2.369v-5.178Zm1.018.784v1.341h1.017c.621 0 .917-.237.917-.675 0-.404-.258-.666-.803-.666h-1.131Zm0 3.61V15.13h1.088c.693 0 1.061.242 1.061.76 0 .49-.325.757-.932.757h-1.217ZM90.824 31.62c.158 1.417 1.54 2.346 3.428 2.346 1.81 0 3.11-.93 3.11-2.206 0-1.109-.784-1.773-2.643-2.227l-1.859-.446c-2.633-.634-3.856-1.86-3.856-3.85 0-2.464 2.156-4.157 5.219-4.157 3.03 0 5.108 1.693 5.178 4.157h-2.167c-.13-1.425-1.313-2.285-3.042-2.285-1.729 0-2.912.87-2.912 2.137 0 1.01.756 1.603 2.604 2.058l1.58.387c2.943.692 4.166 1.87 4.166 3.958 0 2.672-2.137 4.345-5.537 4.345-3.18 0-5.328-1.634-5.467-4.217h2.197Zm-39.435.12h5.467l1.312 3.86h2.355L55.345 21.32h-2.406L47.761 35.6h2.315l1.313-3.86Zm4.9-1.782h-4.334l2.138-6.264h.06l2.136 6.264Zm11.054 5.75c2.624 0 4.364-2.079 4.364-5.314 0-3.227-1.75-5.315-4.404-5.315a3.713 3.713 0 0 0-3.33 1.84h-.039v-1.732h-2.078v13.857h2.147v-5.157h.05a3.548 3.548 0 0 0 3.29 1.821Zm-.606-8.808c1.67 0 2.764 1.386 2.764 3.494 0 2.127-1.095 3.503-2.764 3.503-1.64 0-2.743-1.405-2.743-3.503 0-2.079 1.103-3.494 2.743-3.494Zm16.48 3.494c0 3.235-1.74 5.314-4.364 5.314a3.548 3.548 0 0 1-3.29-1.821h-.05v5.157h-2.147V25.188h2.078v1.732h.04a3.713 3.713 0 0 1 3.329-1.84c2.654 0 4.403 2.088 4.403 5.315Zm-2.207 0c0-2.108-1.094-3.494-2.763-3.494-1.64 0-2.743 1.415-2.743 3.494 0 2.098 1.103 3.503 2.743 3.503 1.67 0 2.763-1.376 2.763-3.503Zm23.252-5.206v-2.464h-2.157v2.464h-1.52v1.692h1.52v5.968c0 2.02.826 2.81 2.943 2.81.4.008.799-.025 1.192-.098v-1.682c-.234.029-.47.045-.706.05-.874 0-1.272-.416-1.272-1.308v-5.74h1.989v-1.692h-1.989Zm8.1-.128c-3.022 0-4.96 2.058-4.96 5.334 0 3.285 1.919 5.335 4.96 5.335 3.042 0 4.96-2.05 4.96-5.335 0-3.276-1.928-5.334-4.96-5.334Zm0 1.76c1.739 0 2.773 1.327 2.773 3.574 0 2.256-1.034 3.572-2.773 3.572s-2.773-1.316-2.773-3.572c0-2.237 1.034-3.573 2.773-3.573Zm8.777-1.633h-2.047V35.6h2.146v-6.176a2.15 2.15 0 0 1 .565-1.71c.43-.46 1.041-.71 1.672-.685.326-.01.652.034.964.13v-2a3.321 3.321 0 0 0-.735-.08 2.492 2.492 0 0 0-2.515 1.882h-.05v-1.773Zm8.694 10.542c2.366 0 4.214-1.298 4.503-3.188h-2.038a2.366 2.366 0 0 1-2.415 1.465 2.73 2.73 0 0 1-2.075-.843 2.705 2.705 0 0 1-.738-2.106v-.13h7.386v-.732c0-3.157-1.82-5.136-4.713-5.136-2.941 0-4.84 2.119-4.84 5.384 0 3.256 1.888 5.286 4.93 5.286Zm2.475-6.295h-5.228a2.63 2.63 0 0 1 .779-1.874 2.652 2.652 0 0 1 1.884-.769 2.52 2.52 0 0 1 1.863.764 2.5 2.5 0 0 1 .702 1.879ZM34.738 10.558a5.587 5.587 0 0 1-1.287 4.014 4.743 4.743 0 0 1-3.739 1.76 5.317 5.317 0 0 1 1.322-3.865 5.734 5.734 0 0 1 3.704-1.909Zm4.59 8.543a5.686 5.686 0 0 0-2.723 4.774 5.499 5.499 0 0 0 3.372 5.06 12.585 12.585 0 0 1-1.753 3.556c-1.033 1.538-2.117 3.042-3.836 3.07-.817.018-1.37-.216-1.944-.46-.6-.254-1.225-.52-2.203-.52-1.038 0-1.69.274-2.32.538-.545.228-1.072.45-1.814.48-1.638.06-2.889-1.642-3.96-3.166-2.14-3.113-3.805-8.772-1.572-12.623a6.143 6.143 0 0 1 5.167-3.137c.928-.02 1.82.337 2.6.65.598.239 1.13.452 1.567.452.384 0 .902-.205 1.507-.444.951-.376 2.115-.836 3.302-.712a5.858 5.858 0 0 1 4.61 2.482Z" fill="#fff" fill-opacity=".9"></path></svg>