<svg width="15.5rem" height="4.7rem" viewBox="0 0 155 47" version="1.1" xmlns="http://www.w3.org/2000/svg" xmlns:xlink="http://www.w3.org/1999/xlink" class="AppLinks_icon__cX36_" data-tid="GooglePlayGray"><path d="M.515 13.186c0-4.48 0-6.72.872-8.432a8 8 0 0 1 3.496-3.496C6.594.386 8.834.386 13.315.386h128.4c4.48 0 6.72 0 8.432.872a8.001 8.001 0 0 1 3.496 3.496c.872 1.711.872 3.951.872 8.432v20.4c0 4.48 0 6.72-.872 8.432a8.001 8.001 0 0 1-3.496 3.496c-1.712.872-3.952.872-8.432.872h-128.4c-4.48 0-6.721 0-8.432-.872a8 8 0 0 1-3.496-3.496c-.872-1.712-.872-3.952-.872-8.432v-20.4Z" fill="#141414" fill-opacity="1"></path><path fill-rule="evenodd" clip-rule="evenodd" d="m66.018 9.406-.204-.002-.245.004a3.664 3.664 0 0 0-3.223 2.288 3.644 3.644 0 0 0-.261 1.44 3.642 3.642 0 0 0 1.067 2.647 3.662 3.662 0 0 0 2.664 1.071l.276-.01.188-.013.236-.032c.312-.054.618-.148.91-.279a3.51 3.51 0 0 0 1.205-.935l.163-.198-.999-.997-.196.245-.137.156a2.334 2.334 0 0 1-1.665.717 2.227 2.227 0 0 1-1.63-.644 2.54 2.54 0 0 1 .009-3.426 2.218 2.218 0 0 1 1.617-.636 1.925 1.925 0 0 1 1.626.73l.192.245 1.01-.97-.168-.201-.143-.161a3.34 3.34 0 0 0-2.292-1.039ZM74 9.557v-.01h-5.11v1.378h1.854v5.786h1.413v-5.786H74V9.78l2.232 4.931-.232.507a.747.747 0 0 1-.18.226.536.536 0 0 1-.26.044.64.64 0 0 1-.323-.083l-.314-.182-.385 1.366.225.098.149.058c.2.069.41.106.623.108a1.948 1.948 0 0 0 1.795-1.376l2.67-5.93h-1.627l-1.406 3.355-1.442-3.345H74Zm13.954 2.817V9.547h-1.412v7.164h1.412V13.73H90.7v2.98h1.413V9.548h-1.412l-.001 2.827h-2.746Zm-34.462 2.958V9.547h-4.976v3.55l.018.222c.017.367-.031.715-.141 1.046l-.073.196-.087.19a2.857 2.857 0 0 1-.34.524l-.061.069h-.85v2.763h1.381v-1.396h4.488v1.386h1.38v-2.764h-.74ZM97.767 9.67a3.707 3.707 0 0 0-4.05.807 3.842 3.842 0 0 0-.005 5.288 3.73 3.73 0 0 0 5.258.006 3.828 3.828 0 0 0 .006-5.29 3.713 3.713 0 0 0-1.21-.811Zm-38.225 0a3.706 3.706 0 0 0-4.048.807 3.842 3.842 0 0 0-.005 5.288 3.73 3.73 0 0 0 5.256.006 3.828 3.828 0 0 0 .006-5.29 3.713 3.713 0 0 0-1.209-.811Zm47.599.452a2.223 2.223 0 0 0-1.536-.575h-2.67v7.169l2.824-.05.194-.005a2.334 2.334 0 0 0 1.404-.607c.446-.387.699-.96.686-1.557a1.767 1.767 0 0 0-.379-1.114l-.107-.127-.118-.118-.127-.108-.106-.075.098-.09.114-.124.102-.135c.197-.295.297-.639.291-.989a1.928 1.928 0 0 0-.67-1.495ZM85.594 16.71V9.547h-5.35v7.164h1.411v-5.786h2.527v5.786h1.412Zm9.16-5.284a2.272 2.272 0 0 1 3.189.01 2.528 2.528 0 0 1-.01 3.394 2.27 2.27 0 0 1-3.188-.01 2.528 2.528 0 0 1 .01-3.394Zm-38.224 0a2.271 2.271 0 0 1 3.19.01 2.528 2.528 0 0 1-.01 3.394 2.27 2.27 0 0 1-3.19-.01 2.528 2.528 0 0 1 .01-3.394Zm-6.634-.502h2.118v4.451h-2.558l.125-.29a4.67 4.67 0 0 0 .314-1.973v-2.188Zm54.456 4.407.025-1.625 1.399.001.103.006a.82.82 0 0 1 .718.812.817.817 0 0 1-.23.553.748.748 0 0 1-.582.254h-1.433Zm.002-2.958.032-1.484 1.31.001.097.004a.666.666 0 0 1 .422.22.693.693 0 0 1-.022 1.012.733.733 0 0 1-.572.248h-1.267Zm-30.86 15.059a4.681 4.681 0 0 1 3.303-1.38 4.631 4.631 0 0 1 3.35 1.342 4.602 4.602 0 0 1 1.36 3.333 4.682 4.682 0 0 1-4.68 4.675 4.682 4.682 0 0 1-4.696-4.66 4.682 4.682 0 0 1 1.363-3.31Zm1.673 5.755a2.848 2.848 0 0 0 1.63.378 2.716 2.716 0 0 0 2.486-1.776c.124-.34.18-.7.162-1.062a2.839 2.839 0 0 0-1.809-2.635 2.851 2.851 0 0 0-3.122.709 2.832 2.832 0 0 0 .653 4.386ZM63.22 27.425a4.682 4.682 0 0 1 3.308-1.373 4.63 4.63 0 0 1 3.338 1.342 4.601 4.601 0 0 1 1.36 3.333 4.68 4.68 0 0 1-4.683 4.675 4.682 4.682 0 0 1-4.692-4.667c0-1.241.492-2.432 1.37-3.31Zm1.675 5.768a2.848 2.848 0 0 0 1.633.372h-.011a2.717 2.717 0 0 0 2.486-1.776c.125-.34.18-.7.162-1.062a2.84 2.84 0 0 0-1.812-2.635 2.851 2.851 0 0 0-3.122.714 2.832 2.832 0 0 0 .664 4.387Zm-10.6-3.72v-1.98l6.696-.055c.076.41.113.826.11 1.243a6.59 6.59 0 0 1-1.722 4.642 6.629 6.629 0 0 1-5.085 2.036 7.296 7.296 0 0 1-6.55-3.55 7.253 7.253 0 0 1 0-7.433 7.296 7.296 0 0 1 6.55-3.549 6.948 6.948 0 0 1 4.997 2.058l-1.4 1.396a5.082 5.082 0 0 0-3.608-1.42 5.287 5.287 0 0 0-5.295 5.28 5.288 5.288 0 0 0 5.295 5.28 4.883 4.883 0 0 0 3.674-1.451 4.141 4.141 0 0 0 1.103-2.497h-4.766Zm48.438-2.555a4.412 4.412 0 0 1 1.544 2.115l.232.495-6.278 2.585a2.383 2.383 0 0 0 2.274 1.42 2.68 2.68 0 0 0 2.306-1.3l1.598 1.1a4.668 4.668 0 0 1-3.904 2.07 4.596 4.596 0 0 1-4.33-2.878 4.568 4.568 0 0 1-.326-1.798 4.393 4.393 0 0 1 2.659-4.316 4.42 4.42 0 0 1 1.754-.36 4.412 4.412 0 0 1 2.471.867Zm-4.719 2.673a2.557 2.557 0 0 0-.135 1.004l4.192-1.738a1.821 1.821 0 0 0-1.743-.99 2.575 2.575 0 0 0-2.314 1.724Zm-3.169 5.536H92.781v-13.75h2.063v13.75Zm-5.515-8.03h.077v-.77h1.897v8.326c0 3.454-1.996 4.873-4.412 4.873a4.468 4.468 0 0 1-4.16-2.76l1.799-.75a2.592 2.592 0 0 0 2.36 1.662c1.545 0 2.505-.956 2.505-2.75v-.67h-.066a3.203 3.203 0 0 1-2.472 1.1 4.692 4.692 0 0 1-4.47-4.68 4.693 4.693 0 0 1 4.47-4.68 3.314 3.314 0 0 1 2.472 1.1Zm-2.287 6.468a2.852 2.852 0 0 1-2.603-2.838 2.852 2.852 0 0 1 2.606-2.838 2.65 2.65 0 0 1 1.852.893c.472.534.707 1.236.653 1.945a2.612 2.612 0 0 1-1.492 2.588c-.319.15-.664.236-1.016.25Zm21.966-12.188H113.951a4.295 4.295 0 0 1 3.97 2.041 4.27 4.27 0 0 1-1.699 6.031c-.7.36-1.486.52-2.271.464h-2.879v5.214h-2.064v-13.75Zm2.053 6.6h2.878l.044.033a2.365 2.365 0 0 0 2.367-2.36 2.357 2.357 0 0 0-1.462-2.18 2.363 2.363 0 0 0-.905-.179h-2.922v4.686Zm13.448-1.477a3.86 3.86 0 0 1 2.15-.503l.055.034c2.35 0 4.181 1.396 4.181 3.806v5.29h-1.986v-1.1h-.066a2.9 2.9 0 0 1-2.647 1.32 3.196 3.196 0 0 1-2.351-.792 3.178 3.178 0 0 1-1.069-2.233c0-1.99 1.997-3.09 3.971-3.09a4.565 4.565 0 0 1 2.151.527v-.143a1.976 1.976 0 0 0-1.426-1.706 1.989 1.989 0 0 0-.78-.065 1.955 1.955 0 0 0-1.875 1.012l-1.831-.758c.341-.67.87-1.225 1.523-1.599Zm.286 5.866c0 .825.937 1.166 1.61 1.166l.056.033a2.49 2.49 0 0 0 2.415-2.2 3.67 3.67 0 0 0-1.875-.462c-1.037 0-2.206.363-2.206 1.463Zm10.976-.077 2.36-5.962h2.295l-5.648 12.969h-2.151l2.096-4.63-3.674-8.339h2.206l2.45 5.962h.066Zm-14.12 2.838h-2.064v-13.75h2.064v13.75ZM37.43 25.093l-4.681 2.664-4.157-3.695L33.2 19.99l4.23 2.407c.656.373 1.025.855 1.087 1.347v.002c-.062.491-.43.973-1.087 1.347Zm-5.607-5.887-14.618-8.32c-.417-.236-.812-.349-1.164-.349-.358 0-.671.117-.915.338-.213.192-.373.463-.466.803l12.803 11.38 4.36-3.852Zm-5.492 4.853L14.57 13.605v20.847L26.33 24.06Zm-11.505 12.17a1.5 1.5 0 0 0 .224.31l.077.075c.244.22.557.338.916.337.351 0 .746-.112 1.162-.348l14.167-8.063-3.912-3.477-12.635 11.165Z" fill="#fff" fill-opacity=".9"></path></svg>