<svg width="58" height="24" viewBox="0 0 58 24" fill="none" xmlns="http://www.w3.org/2000/svg">
                    <path fill-rule="evenodd" clip-rule="evenodd" d="M12 0H46C52.6274 0 58 5.37259 58 12C58 18.6274 52.6274 24 46 24H12C5.37257 24 0 18.6274 0 12C0 5.37258 5.37258 0 12 0ZM12 1.06077C5.95843 1.06077 1.06077 5.95843 1.06077 12C1.06077 18.0416 5.95842 22.9392 12 22.9392H46C52.0416 22.9392 56.9392 18.0416 56.9392 12C56.9392 5.95843 52.0416 1.06077 46 1.06077H12Z" fill="black"></path>
                    <rect x="5.30371" y="4.64087" width="14.5856" height="14.5856" rx="7.29282" fill="#FC3F1D"></rect>
                    <path d="M13.6244 16.3167H15.148V7.56531H12.9319C10.7031 7.56531 9.53204 8.71117 9.53204 10.3985C9.53204 11.7458 10.1742 12.5391 11.3201 13.3576L9.33057 16.3167H10.9801L13.1963 13.005L12.4282 12.4887C11.4964 11.8592 11.0431 11.3681 11.0431 10.3103C11.0431 9.37854 11.6978 8.74895 12.9444 8.74895H13.6244V16.3167Z" fill="white"></path>
                    <path fill-rule="evenodd" clip-rule="evenodd" d="M45.2273 17.2309V17.2376H43.0988V6.37415H46.3853C47.2488 6.37415 48.0453 6.46785 48.7682 6.65527C49.491 6.84268 50.1202 7.14389 50.6624 7.55888C51.1979 7.97387 51.6196 8.52943 51.9208 9.21216C52.222 9.90158 52.3759 10.7449 52.3759 11.7423C52.3759 12.927 52.1082 13.931 51.5794 14.7409C51.0506 15.5508 50.321 16.1733 49.3973 16.595C48.4736 17.0167 47.4295 17.2309 46.2648 17.2309H45.2273ZM45.2273 15.6378V7.96718H46.1979C46.9743 7.96718 47.6704 8.08097 48.2728 8.30854C48.8753 8.53612 49.3505 8.93103 49.6919 9.47989C50.0332 10.0354 50.2072 10.7784 50.2072 11.7155C50.2072 12.5856 50.0332 13.3085 49.6852 13.8909C49.3371 14.4732 48.8485 14.9083 48.226 15.2028C47.6035 15.4973 46.8806 15.6378 46.0573 15.6378H45.2273Z" fill="black"></path>
                    <path d="M41.2246 17.2376V6.37419H39.1162V17.2376H41.2246Z" fill="black"></path>
                    <path fill-rule="evenodd" clip-rule="evenodd" d="M35.4694 11.9337C35.4694 15.9614 32.2043 19.2265 28.1766 19.2265C24.1489 19.2265 20.8838 15.9614 20.8838 11.9337C20.8838 7.90597 24.1489 4.64087 28.1766 4.64087C27.6415 4.64087 27.108 4.69977 26.5857 4.8165L26.9197 6.31064C24.3427 6.88414 22.416 9.18392 22.416 11.9337C22.416 15.1152 24.9951 17.6943 28.1766 17.6943C31.3581 17.6943 33.9372 15.1152 33.9372 11.9337V11.9337H35.4694ZM28.1766 4.64087C32.2043 4.64087 35.4694 7.90597 35.4694 11.9337C35.4694 11.3986 35.4105 10.8651 35.2938 10.3428L33.7997 10.6768C33.2262 8.09976 30.9264 6.17311 28.1766 6.17311H28.1766V4.64087ZM28.1766 16.2453C29.9511 16.2453 31.4752 15.1733 32.1366 13.6416L30.7323 13.0294C30.3071 14.0199 29.3228 14.7137 28.1766 14.7137C27.0424 14.7137 26.0668 14.0344 25.6344 13.0605L24.2301 13.6728C24.8987 15.1878 26.4142 16.2453 28.1766 16.2453Z" fill="black"></path>
                </svg>