<svg width="16" height="16" fill="none" xmlns="http://www.w3.org/2000/svg"><path fill-rule="evenodd" clip-rule="evenodd" d="M6 10.347c-.39 0-.623 0-1.12-.08-.623-.1-1.377.218-2.263.952.328-1.023.288-1.855-.12-2.497a3.855 3.855 0 0 1-.597-2.1c0-2.077 1.775-3.725 4.1-3.725 2.325 0 4.1 1.648 4.1 3.725 0 2.078-1.775 3.725-4.1 3.725zM.79 12.635c1.274.013 2.286-.24 3.036-.758.674.24 1.407.37 2.174.37 3.314 0 6-2.437 6-5.625C12 3.435 9.314.997 6 .997S0 3.435 0 6.622c0 1.46.564 2.763 1.493 3.746-.05.628-.336 1.276-.86 1.944a.2.2 0 0 0 .156.323zm14.452 1.72c-1.152.007-2.069-.225-2.75-.695-.617.22-1.29.34-1.992.34-.874 0-1.7-.185-2.434-.518 1.027-.075 1.739-.426 2.347-.725.517-.254.958-.471 1.454-.45a2.77 2.77 0 0 1 1.408.423c-.233-1.15.019-1.65.326-2.259.096-.191.198-.393.292-.63.932-2.344.082-4.855-.76-5.54C14.84 5.157 16 6.838 16 8.843a4.955 4.955 0 0 1-1.368 3.433c.045.567.3 1.153.767 1.756a.2.2 0 0 1-.157.323z" fill="currentColor"></path></svg>