<svg width="20.4rem" height="14.9rem" viewBox="0 0 204 149" version="1.1" xmlns="http://www.w3.org/2000/svg" xmlns:xlink="http://www.w3.org/1999/xlink" class="LandingDevicesGrid_devices-background__rVf9O" data-tid="AndroidTvBg"><path d="M77.3142 187.474c-3.5744 5.71-12.8625 2.004-17.2973.695-4.4348-1.308-23.5852-7.01-26.1264-7.981-3.8117-1.456-6.4998-7.111-6.603-7.953-.5734-2.352 2.9222-8.123 3.8558-9.805C54.748 120.211 124.619-4.2632 124.619-4.2632c2.052-3.6 6.214-5.6775 10.422-5.0536 0 0 1.702-.0662 5.883.9172 10.835 2.376 19.188 4.8427 26.602 7.2107 3.479 1.0695 6.158 3.1632 6.657 7.234l.603 4.9129c.155 1.2633-.05 2.4995-.693 3.6469L81.3394 180.212l-4.0252 7.262Z" stroke-width=".5" stroke-miterlimit="10" fill="none"></path><path d="m87.1859 77.408 9.2464 2.7845c2.0685.6013 4.2797.0452 5.2577-1.8557 1.533-2.61-.26-5.0262-2.7665-5.7162l-7.6951-2.3336c-2.1473-.6628-4.5263.27-5.7235 2.1266l-.2463.3151c-1.3375 1.8738-.3603 4.0337 1.9273 4.6793ZM108.063 83.824l9.246 2.7845c2.069.6013 4.28.0452 5.258-1.8557 1.532-2.61-.26-5.0262-2.767-5.7162l-7.695-2.3336c-2.147-.6628-4.526.27-5.723 2.1266l-.246.3151c-1.198 1.8566-.22 4.0165 1.927 4.6793ZM140.551 8.316c-.63-.4926-1.058-1.0813-1.223-1.8447-.278-1.1058-.056-2.2016.744-3.2258 1.54-1.9698 4.778-2.8655 7.241-1.9563 1.27.4853 2.093 1.3819 2.371 2.4876.278 1.1058.056 2.2016-.745 3.2258-1.539 1.9698-4.778 2.8655-7.24 1.9564-.377-.1676-.754-.335-1.148-.643ZM106.43 69.3492c-.63-.4926-1.058-1.0813-1.223-1.8447-.278-1.1058-.056-2.2016.744-3.2258 1.54-1.9698 4.778-2.8655 7.241-1.9564 1.27.4854 2.092 1.382 2.37 2.4877.279 1.1058.057 2.2016-.744 3.2258-1.539 1.9698-4.778 2.8655-7.24 1.9564-.377-.1676-.832-.3967-1.148-.643ZM92.8718 65.0992c-.6304-.4926-1.0587-1.0813-1.2236-1.8447-.278-1.1058-.0562-2.2016.7444-3.2258 1.5395-1.9698 4.7779-2.8655 7.2403-1.9564 1.2711.4854 2.0931 1.382 2.3711 2.4877.278 1.1058.056 2.2016-.744 3.2258-1.5399 1.9698-4.7784 2.8655-7.2408 1.9564-.4555-.2291-.8323-.3967-1.1474-.643ZM121.067 73.6812c-.63-.4926-1.059-1.0812-1.223-1.8447-.279-1.1057-.057-2.2015.744-3.2258 1.539-1.9698 4.778-2.8655 7.24-1.9563 1.271.4854 2.093 1.3819 2.371 2.4876.278 1.1058.056 2.2016-.744 3.2259-1.54 1.9697-4.778 2.8655-7.24 1.9563-.439-.0887-.833-.3966-1.148-.643ZM133.786 20.5445c-.631-.4926-1.059-1.0813-1.224-1.8447-.278-1.1057-.056-2.2015.745-3.2258 1.539-1.9698 4.778-2.8655 7.24-1.9563 1.271.4853 2.093 1.3819 2.371 2.4876.278 1.1058.056 2.2016-.744 3.2259-1.54 1.9697-4.778 2.8654-7.241 1.9563-.438-.0888-.832-.3967-1.147-.643ZM117.314 47.1416c-1.103-.8621-1.802-1.9162-2.176-3.2239-.522-1.9308-.044-3.8416 1.311-5.575 2.771-3.5456 8.44-4.9531 12.707-3.2678 2.165.8032 3.713 2.3943 4.235 4.3251.522 1.9308.044 3.8416-1.311 5.575-2.771 3.5456-8.44 4.9531-12.708 3.2678-.753-.335-1.507-.6701-2.058-1.1012Z" stroke-width=".5" stroke-miterlimit="10" fill="none"></path><path d="M108.991 54.2174c-2.443-1.909-4.174-4.4039-4.877-7.2385-1.157-4.2038-.068-8.6831 3.073-12.7014 6.22-7.9578 19.129-11.3216 28.715-7.5101 4.942 1.9587 8.293 5.4661 9.467 9.8103 1.156 4.2038.067 8.6831-3.073 12.7014-6.22 7.9578-19.13 11.3216-28.716 7.5101-1.787-.6357-3.329-1.5866-4.589-2.5718Z" stroke-width=".5" stroke-miterlimit="10" fill="none"></path><path d="M30.2877 164.173c-2.3871 4.354-6.3924 10.615 4.8517 10.519 11.2441-.096 24.92 6.277 29.6846 9.112 4.3705 2.528 7.7738 2.396 11.9839-5.102L172.766 7.8573c.582-1.0687.85-3.5238.302-5.095" stroke-width=".5" stroke-miterlimit="10" fill="none"></path><path d="M77.3142 187.474c-3.5744 5.71-12.8625 2.004-17.2973.695-4.4348-1.308-23.5852-7.01-26.1264-7.981-3.8117-1.456-6.4998-7.111-6.603-7.953-.5734-2.352 2.9222-8.123 3.8558-9.805C54.748 120.211 124.619-4.2632 124.619-4.2632c2.052-3.6 6.214-5.6775 10.422-5.0536 0 0 1.702-.0662 5.883.9172 10.835 2.376 19.188 4.8427 26.602 7.2107 3.479 1.0695 6.158 3.1632 6.657 7.234l.603 4.9129c.155 1.2633-.05 2.4995-.693 3.6469L81.3394 180.212l-4.0252 7.262Z" stroke-width="1.5" stroke-miterlimit="10" fill="none"></path></svg>